<?xml version="1.0" standalone="no"?>
<!DOCTYPE svg PUBLIC "-//W3C//DTD SVG 20010904//EN"
 "http://www.w3.org/TR/2001/REC-SVG-20010904/DTD/svg10.dtd">
<svg version="1.0" xmlns="http://www.w3.org/2000/svg"
 width="256.000000pt" height="256.000000pt" viewBox="0 0 256.000000 256.000000"
 preserveAspectRatio="xMidYMid meet">
<metadata>
Created by potrace 1.11, written by Peter Selinger 2001-2013
</metadata>
<g transform="translate(0.000000,256.000000) scale(0.100000,-0.100000)"
fill="#000000" stroke="none">
<path d="M1484 2528 c-5 -13 -8 -25 -9 -28 -2 -11 -45 -118 -68 -170 -13 -30
-25 -59 -25 -65 -1 -5 -22 -62 -48 -125 -25 -63 -62 -155 -81 -205 -19 -49
-39 -99 -44 -110 -4 -11 -20 -51 -34 -90 -14 -38 -33 -82 -41 -97 -8 -16 -13
-28 -10 -28 2 0 -10 -35 -28 -77 -18 -43 -36 -90 -40 -105 l-6 -28 92 -2 c97
-2 140 -4 199 -12 34 -5 36 -3 65 50 16 29 32 54 35 54 3 0 16 21 28 46 13 25
27 42 31 37 5 -6 72 -231 108 -367 4 -15 1 -17 -16 -12 -11 4 -29 9 -39 11
-121 27 -166 35 -171 30 -3 -2 -11 0 -19 7 -21 17 -455 17 -488 -1 -5 -2 -25
-6 -45 -8 -132 -14 -398 -140 -507 -241 -13 -12 -26 -22 -29 -22 -13 0 -254
-256 -254 -271 0 -22 21 -15 49 16 17 19 33 34 35 33 2 -2 15 6 28 17 149 128
458 228 708 228 114 0 265 -25 390 -63 19 -6 42 -13 50 -15 49 -11 250 -105
335 -155 28 -16 63 -37 80 -46 16 -9 35 -23 43 -31 8 -7 32 -23 53 -34 21 -10
39 -23 39 -27 0 -4 14 -16 32 -27 18 -10 43 -30 55 -43 13 -14 23 -23 23 -20
0 6 69 -53 123 -104 22 -21 43 -38 46 -38 10 0 149 -145 226 -235 33 -38 71
-81 85 -95 14 -14 25 -29 25 -34 0 -12 32 -32 40 -25 3 3 -15 57 -41 120 -38
95 -82 206 -124 314 -4 11 -25 63 -46 115 -22 52 -39 97 -40 100 0 3 -4 14 -9
25 -8 20 -54 138 -122 310 -19 50 -41 104 -49 122 -8 17 -14 34 -14 38 0 5
-15 44 -34 89 -33 79 -102 254 -192 486 -25 63 -58 147 -74 185 -15 39 -54
135 -85 215 -31 80 -77 197 -102 260 -25 63 -50 127 -55 143 -13 33 -24 35
-34 5z"/>
<path d="M815 824 c-8 -20 -15 -40 -15 -44 0 -5 -6 -21 -14 -37 -8 -15 -29
-66 -47 -113 -17 -47 -38 -98 -45 -115 -23 -52 -85 -209 -89 -225 -5 -22 -64
-172 -76 -194 -6 -10 -17 -36 -24 -57 -20 -55 3 -52 33 5 13 24 30 52 38 63
21 26 79 120 110 177 14 27 33 56 40 64 8 8 24 32 35 55 12 22 28 47 36 55 7
8 25 35 39 61 33 60 89 151 110 176 9 11 25 39 37 63 12 23 25 42 30 42 4 0 5
5 2 10 -3 6 -1 10 4 10 6 0 11 7 11 15 0 10 -9 15 -27 15 -16 -1 -60 2 -100 5
l-72 6 -16 -37z"/>
</g>
</svg>
